<?xml version="1.0" encoding="UTF-8" standalone="no"?>
<svg
   viewBox="0 0 72 72"
   width="64px"
   height="64px"
   version="1.1"
   id="svg4"
   sodipodi:docname="search-icon-64x64.svg"
   inkscape:version="1.2 (1:1.2.1+202207142221+cd75a1ee6d)"
   xmlns:inkscape="http://www.inkscape.org/namespaces/inkscape"
   xmlns:sodipodi="http://sodipodi.sourceforge.net/DTD/sodipodi-0.dtd"
   xmlns="http://www.w3.org/2000/svg"
   xmlns:svg="http://www.w3.org/2000/svg">
  <defs
     id="defs8" />
  <sodipodi:namedview
     id="namedview6"
     pagecolor="#ffffff"
     bordercolor="#999999"
     borderopacity="1"
     inkscape:showpageshadow="0"
     inkscape:pageopacity="0"
     inkscape:pagecheckerboard="0"
     inkscape:deskcolor="#d1d1d1"
     showgrid="false"
     inkscape:zoom="12.4375"
     inkscape:cx="26.01005"
     inkscape:cy="32.040201"
     inkscape:window-width="1920"
     inkscape:window-height="962"
     inkscape:window-x="0"
     inkscape:window-y="27"
     inkscape:window-maximized="1"
     inkscape:current-layer="svg4" />
  <path
     d="M 31 11 C 19.973 11 11 19.973 11 31 C 11 42.027 19.973 51 31 51 C 34.974166 51 38.672385 49.821569 41.789062 47.814453 L 54.726562 60.751953 C 56.390563 62.415953 59.088953 62.415953 60.751953 60.751953 C 62.415953 59.087953 62.415953 56.390563 60.751953 54.726562 L 47.814453 41.789062 C 49.821569 38.672385 51 34.974166 51 31 C 51 19.973 42.027 11 31 11 z M 31 19 C 37.616 19 43 24.384 43 31 C 43 37.616 37.616 43 31 43 C 24.384 43 19 37.616 19 31 C 19 24.384 24.384 19 31 19 z"
     id="path2"
     style="fill:#c2aab0;fill-opacity:1" />
</svg>
